<?xml version="1.0" encoding="utf-8"?>
<!-- Generator: Adobe Illustrator 24.1.2, SVG Export Plug-In . SVG Version: 6.00 Build 0)  -->
<svg version="1.1" id="Layer_1" xmlns="http://www.w3.org/2000/svg" xmlns:xlink="http://www.w3.org/1999/xlink" x="0px" y="0px"
	 viewBox="0 0 500 500" style="enable-background:new 0 0 500 500;" xml:space="preserve">
<g id="001">
	<path d="M102,217.9v11h-9.2v36.9h-11v-36.9h-9.1v-11H102z"/>
</g>
<g id="002">
	<path d="M136.6,229.1h-19.6v7.2h15.9v11h-15.9v7.5h19.6v11H106v-47.6l30.6-0.1V229.1z"/>
</g>
<g id="003">
	<path d="M156.4,266.7c-1.5,0-3-0.2-4.5-0.6c-1.5-0.4-2.9-1.1-4.3-1.9c-2.3-1.5-4.2-3.5-5.5-5.9c-1.3-2.4-2-5-2-7.9h11
		c0,1.3,0.3,2.3,0.8,3c0.6,0.7,1.1,1.2,1.5,1.5c0.8,0.5,1.6,0.8,2.5,0.8c0.9,0,1.8-0.1,2.7-0.5c0.6-0.3,1.1-0.6,1.5-1
		c0.4-0.4,0.6-0.8,0.8-1.1c0.2-0.4,0.3-0.7,0.4-1.1c0-0.3,0.1-0.6,0.1-0.8c0-0.2,0-0.5-0.1-0.8c0-0.3-0.2-0.7-0.4-1.1
		c-0.2-0.4-0.5-0.8-0.8-1.1c-0.4-0.4-0.9-0.7-1.5-1c-0.5-0.2-1-0.4-1.5-0.6c-0.5-0.2-1.1-0.4-1.7-0.6c-1.1-0.3-2.2-0.7-3.4-1.2
		c-1.2-0.4-2.3-1-3.5-1.8c-1.5-1-2.8-2.1-3.8-3.6c-1-1.4-1.8-3-2.2-4.6c-0.5-1.6-0.6-3.3-0.5-5.1c0.2-1.8,0.6-3.4,1.5-5
		c0.8-1.5,1.8-2.8,2.9-3.8c1.2-1.1,2.5-1.9,3.9-2.6c1.4-0.6,3-1,4.6-1.1c1.6-0.1,3.3,0,5,0.5c1.6,0.4,3.1,1,4.5,1.9
		c1.3,0.8,2.5,1.9,3.5,3.1c1,1.2,1.7,2.5,2.2,4c0.5,1.5,0.8,3,0.8,4.6H160c0-1-0.3-1.7-0.9-2.1c-0.6-0.4-1.2-0.6-1.7-0.8
		c-0.1,0-0.3,0-0.6-0.1c-0.3-0.1-0.7-0.1-1.1,0c-0.4,0.1-0.8,0.2-1.3,0.5c-0.4,0.2-0.8,0.6-1,1.1c-0.3,0.7-0.4,1.4-0.2,2.2
		c0.2,0.8,0.6,1.4,1.3,1.8c0.6,0.3,1.3,0.7,2,0.9c0.7,0.3,1.5,0.6,2.3,0.8c0.7,0.2,1.5,0.5,2.2,0.7c0.8,0.3,1.5,0.6,2.3,0.9
		c2.8,1.3,5.1,3.2,6.7,5.7c1.6,2.5,2.4,5.3,2.4,8.4c0,3-0.8,5.8-2.4,8.3c-1.6,2.5-3.8,4.4-6.7,5.7c-1.1,0.5-2.3,0.9-3.4,1.1
		C158.7,266.6,157.6,266.7,156.4,266.7z"/>
</g>
<g id="004">
	<path d="M204.5,217.9v11h-9.2v36.9h-11v-36.9h-9.1v-11H204.5z"/>
</g>
<g id="005">
	<path d="M220.2,265.8h-11V218h11V265.8z"/>
</g>
<g id="006">
	<path d="M254.2,218.1h11v47.7h-11.9L237.6,238v27.8h-11v-47.6h12l15.5,27.8V218.1z"/>
</g>
<g id="007">
	<path d="M310,239.1v26.7h-11v-1.2c-1.2,0.4-2.5,0.7-3.7,0.9c-1.3,0.2-2.5,0.3-3.8,0.3c-3.1,0-6.1-0.6-9-1.8
		c-2.9-1.2-5.6-2.9-7.9-5.3s-4.1-5-5.2-7.9c-1.1-2.9-1.7-5.9-1.7-9c0-3.1,0.6-6.1,1.7-9c1.1-2.9,2.9-5.6,5.2-7.9
		c2.3-2.3,5-4.1,7.9-5.3c2.9-1.2,6-1.8,9-1.8c3.1,0,6.1,0.6,9,1.8c2.9,1.2,5.6,2.9,7.9,5.3l-7.8,7.8c-1.3-1.3-2.7-2.2-4.3-2.8
		c-1.6-0.6-3.2-0.9-4.9-0.9c-1.6,0-3.3,0.3-4.9,0.9c-1.6,0.6-3,1.6-4.3,2.8s-2.2,2.7-2.9,4.3c-0.7,1.6-1,3.2-1,4.9
		c0,1.6,0.3,3.3,1,4.9c0.6,1.6,1.6,3,2.9,4.3c1.1,1.1,2.4,2,3.8,2.6c1.4,0.6,2.9,1,4.4,1.1c1.5,0.1,3,0,4.5-0.4c1.5-0.4,2.8-1,4.1-2
		V250h-9.6v-11H310z"/>
</g>
<g id="008">
	<path d="M354.6,265.8h-28.4V218h11v36.8h17.4V265.8z"/>
</g>
<g id="009">
	<path d="M370.1,265.8h-11V218h11V265.8z"/>
</g>
<g id="0010">
	<path d="M404.1,218.1h11v47.7h-11.9L387.6,238v27.8h-11v-47.6h12l15.5,27.8V218.1z"/>
</g>
<g id="0011">
	<path d="M463.3,218l-24.5,23.9l24.5,23.9h-15.9l-15.3-15v15h-11V218h11v15.1l15.4-15.1H463.3z"/>
</g>
</svg>
